<?xml version="1.0" standalone="no"?>
<!DOCTYPE svg PUBLIC "-//W3C//DTD SVG 20010904//EN"
 "http://www.w3.org/TR/2001/REC-SVG-20010904/DTD/svg10.dtd">
<svg version="1.0" xmlns="http://www.w3.org/2000/svg"
 width="130.000000pt" height="130.000000pt" viewBox="0 0 130.000000 130.000000"
 preserveAspectRatio="xMidYMid meet">
<metadata>
Created by potrace 1.11, written by Peter Selinger 2001-2013
</metadata>
<g transform="translate(0.000000,130.000000) scale(0.100000,-0.100000)"
fill="#000000" stroke="none">
<path d="M600 1220 c-9 -6 -10 -10 -3 -10 6 0 15 5 18 10 8 12 4 12 -15 0z"/>
<path d="M635 1209 c-4 -6 -21 -9 -39 -8 -17 2 -36 0 -41 -3 -14 -8 -73 -20
-82 -16 -5 2 -6 8 -5 13 2 6 0 6 -5 2 -4 -5 -8 -14 -8 -20 0 -7 -4 -12 -10
-12 -5 -1 -20 -7 -33 -14 -13 -7 -30 -10 -37 -7 -10 3 -12 0 -8 -11 5 -13 2
-15 -11 -10 -9 4 -15 3 -12 -2 6 -9 -44 -47 -56 -43 -5 1 -7 -2 -5 -6 3 -10
-49 -62 -63 -62 -6 0 -9 -4 -6 -8 2 -4 -5 -19 -16 -32 -11 -14 -16 -18 -12
-10 4 8 3 12 -1 7 -5 -4 -10 -18 -12 -30 -2 -12 -8 -23 -13 -25 -6 -2 -10 -10
-10 -18 0 -8 -8 -29 -17 -47 -9 -18 -16 -39 -14 -46 1 -8 -5 -21 -15 -28 -10
-7 -13 -13 -6 -13 6 0 9 -6 6 -14 -9 -23 -9 -186 0 -186 4 0 2 -8 -5 -17 -8
-9 -9 -14 -2 -10 7 5 14 -4 19 -25 10 -42 9 -40 18 -60 4 -9 4 -22 0 -29 -4
-7 -3 -9 3 -6 6 4 14 0 17 -9 9 -22 8 -26 -6 -18 -7 4 -8 3 -4 -4 4 -7 14 -12
23 -12 9 0 13 -3 10 -6 -4 -4 2 -15 14 -25 14 -12 16 -18 7 -22 -9 -4 -9 -6
-1 -6 16 -1 63 -48 55 -55 -3 -3 0 -6 7 -6 7 0 9 -5 5 -12 -4 -6 -3 -8 3 -5
16 10 55 -23 48 -40 -4 -13 -3 -13 8 -4 11 9 17 8 27 -4 7 -8 19 -15 26 -15 8
0 14 -4 14 -10 0 -5 9 -10 20 -10 11 0 23 -7 27 -16 5 -13 7 -13 14 -2 7 10 9
11 9 0 0 -8 5 -10 12 -6 8 5 9 2 4 -11 -5 -15 -4 -16 8 -6 8 7 19 10 23 8 5
-3 28 -8 53 -12 53 -8 63 -13 54 -27 -4 -7 -2 -8 5 -4 6 4 9 11 7 15 -3 4 16
8 42 9 43 0 114 8 120 13 1 1 5 2 10 4 12 3 45 16 79 31 17 8 36 14 42 14 6 0
11 5 11 11 0 6 7 9 15 5 8 -3 14 -1 12 3 -1 5 1 8 5 8 4 -1 15 8 23 21 9 12
21 20 26 17 5 -4 9 0 9 9 0 8 4 16 9 18 4 1 26 24 49 50 22 26 43 44 46 40 4
-3 4 1 0 11 -3 10 -1 17 6 17 6 0 8 4 5 10 -3 6 -1 10 4 10 6 0 11 8 11 18 0
10 4 22 10 28 5 5 11 20 13 33 2 13 12 31 23 39 14 11 15 13 3 9 -13 -4 -15
-1 -12 14 3 11 10 16 17 12 6 -4 5 1 -3 10 -11 13 -11 17 -1 17 8 0 10 3 7 7
-4 3 -1 13 6 21 10 13 9 14 -1 8 -10 -6 -12 2 -11 33 2 23 8 41 13 41 6 0 5 4
-3 9 -7 5 -11 13 -7 19 3 6 2 13 -4 17 -5 3 -10 11 -10 16 0 6 4 8 8 5 5 -3 9
1 9 9 0 8 -4 12 -9 9 -7 -5 -12 19 -11 53 1 7 -4 10 -10 6 -6 -4 -8 2 -5 15 4
14 2 20 -5 15 -6 -4 -8 2 -5 15 4 12 2 20 -3 16 -5 -3 -9 2 -9 10 0 9 -5 16
-11 16 -5 0 -7 5 -4 10 3 6 1 10 -5 10 -7 0 -9 7 -6 16 3 8 2 12 -4 9 -6 -3
-10 -3 -10 2 0 4 -16 25 -35 47 -19 21 -32 43 -28 49 3 5 1 7 -4 4 -12 -7 -59
31 -56 44 2 5 0 8 -5 7 -13 -3 -52 13 -53 23 -1 5 -2 13 -3 18 0 5 -4 13 -8
17 -4 3 -6 -2 -4 -13 4 -19 3 -19 -29 -5 -31 14 -32 17 -17 29 15 13 14 13 -5
3 -23 -11 -73 -4 -73 10 0 4 -12 5 -26 2 -18 -3 -25 -1 -20 6 3 6 1 14 -5 18
-7 4 -9 3 -6 -3 4 -7 -12 -11 -44 -12 -30 0 -48 3 -44 9 3 6 4 10 1 10 -3 0
-8 -5 -11 -11z m-11 -72 c-5 -8 -3 -8 7 1 19 18 28 15 24 -9 -3 -12 -1 -18 3
-15 4 4 7 13 7 19 0 7 10 13 23 13 12 1 22 -3 22 -9 0 -6 3 -7 7 -4 3 4 12 -1
20 -11 11 -14 12 -14 7 -1 -4 13 0 15 20 12 14 -3 23 -9 20 -14 -3 -5 2 -6 11
-3 20 8 130 -46 175 -86 19 -17 29 -28 21 -24 -9 5 -12 3 -7 -4 4 -7 12 -12
18 -12 15 0 48 -40 48 -57 0 -8 4 -12 9 -9 5 3 12 -1 15 -10 4 -10 2 -13 -7
-9 -6 4 -4 0 5 -8 16 -13 62 -107 53 -107 -3 0 0 -12 6 -27 15 -40 18 -83 5
-83 -7 0 -7 -3 -1 -8 14 -10 20 -56 6 -48 -6 4 -11 2 -11 -3 0 -6 4 -11 9 -11
5 0 5 -16 1 -37 -5 -21 -11 -51 -14 -67 -3 -16 -12 -36 -20 -45 -8 -9 -15 -20
-16 -26 -1 -5 -7 -9 -13 -7 -7 2 -6 -2 1 -11 12 -14 7 -27 -10 -27 -5 0 -6 6
-2 13 4 6 3 8 -1 4 -14 -12 -15 -38 -2 -30 15 8 -27 -42 -71 -85 -18 -18 -37
-30 -42 -27 -5 3 -12 0 -16 -6 -5 -8 -2 -10 7 -5 8 4 5 0 -5 -8 -23 -19 -40
-21 -30 -4 4 7 3 8 -5 4 -6 -4 -9 -11 -6 -16 7 -11 -50 -42 -59 -33 -3 4 -6 2
-6 -4 0 -18 -89 -36 -107 -22 -11 10 -13 10 -11 -1 2 -10 -11 -14 -49 -15 -35
-1 -50 2 -46 9 4 7 1 7 -6 0 -15 -14 -91 1 -103 19 -4 7 -8 8 -8 3 0 -5 -8 -2
-17 5 -13 11 -15 11 -9 1 9 -16 -55 14 -65 30 -3 5 -10 10 -15 10 -5 0 -8 5
-6 10 2 6 -3 8 -11 5 -17 -6 -79 47 -75 65 2 8 -4 12 -14 10 -18 -3 -25 12
-10 21 4 2 2 3 -5 1 -16 -4 -67 72 -57 87 4 7 3 10 -3 6 -9 -6 -29 36 -48 102
-6 18 -4 22 6 15 12 -6 12 -5 1 8 -10 13 -10 17 0 21 8 3 6 6 -6 6 -16 1 -17
3 -5 18 10 11 10 14 2 9 -8 -4 -13 -1 -13 9 0 10 5 13 12 9 8 -5 8 -3 2 7 -11
17 -13 69 -2 69 4 0 4 7 1 17 -5 12 -3 14 8 8 12 -8 12 -6 0 8 -7 9 -9 17 -3
17 5 0 8 9 5 20 -3 12 0 20 6 20 7 0 10 4 7 9 -8 13 4 42 15 35 5 -3 6 1 3 9
-3 8 2 21 10 30 9 9 16 22 16 29 0 8 23 38 50 68 28 30 50 48 50 40 0 -8 6 -4
13 10 7 14 21 24 30 24 9 -1 15 2 12 6 -5 9 86 57 120 64 11 2 29 7 40 11 16
6 17 5 5 -4 -9 -7 -10 -11 -3 -11 6 0 15 5 18 10 4 6 11 8 16 5 5 -4 9 -2 9 2
0 5 9 9 20 10 13 1 18 -2 14 -10z"/>
<path d="M687 1079 c7 -7 15 -10 18 -7 3 3 -2 9 -12 12 -14 6 -15 5 -6 -5z"/>
<path d="M603 1064 c8 -15 -9 -21 -50 -20 -17 1 -29 -2 -26 -6 7 -12 -22 -9
-34 3 -8 8 -13 7 -18 -2 -5 -7 -4 -10 3 -5 6 3 13 2 17 -4 6 -9 -7 -14 -27
-11 -5 0 -8 -4 -8 -10 0 -6 -7 -8 -16 -5 -8 3 -12 2 -9 -4 3 -6 2 -10 -4 -10
-12 0 -121 -110 -121 -123 0 -4 -4 -5 -10 -2 -6 3 -7 -1 -4 -9 4 -11 0 -16
-12 -17 -12 0 -14 -3 -6 -6 10 -4 10 -8 0 -21 -7 -8 -13 -18 -13 -21 0 -3 -3
-5 -6 -4 -3 1 -5 -8 -4 -20 1 -12 -3 -25 -9 -29 -8 -6 -8 -8 0 -8 14 0 6 -52
-10 -62 -8 -5 -7 -8 2 -8 6 0 12 -5 12 -11 0 -5 -4 -8 -8 -5 -5 3 -9 -1 -9 -9
0 -8 4 -12 7 -10 4 3 8 -5 9 -18 1 -12 3 -36 4 -54 1 -17 5 -29 9 -26 7 4 12
-19 9 -39 0 -5 4 -8 10 -8 6 0 8 -7 5 -17 -4 -10 -4 -14 0 -10 10 10 36 -31
28 -45 -4 -6 -3 -8 4 -4 6 3 19 -4 29 -17 10 -13 41 -40 68 -61 54 -41 68 -54
46 -41 -10 6 -12 4 -6 -4 5 -9 11 -9 17 -3 7 7 15 6 25 -4 8 -8 19 -12 24 -9
5 4 15 3 21 -2 18 -11 35 -13 108 -12 99 0 120 2 120 11 0 4 9 8 19 8 11 0 23
5 26 11 4 6 14 8 22 5 8 -3 11 -1 8 4 -3 6 0 10 8 10 8 0 18 8 21 17 6 15 8
15 16 3 8 -12 10 -12 10 -1 0 8 20 33 45 57 25 24 42 44 40 44 -3 0 6 18 19
39 14 21 22 42 19 45 -4 3 2 6 13 7 11 0 14 3 6 6 -10 4 -9 9 5 20 10 8 12 11
4 7 -11 -5 -12 -1 -7 20 11 45 6 217 -6 209 -5 -2 -8 2 -8 10 0 19 -30 78 -52
101 -9 10 -15 23 -12 28 3 5 0 7 -7 6 -7 -2 -18 8 -26 22 -7 14 -13 21 -13 16
0 -5 -9 1 -19 13 -11 12 -23 22 -27 21 -4 0 -9 7 -10 16 -1 9 -6 19 -10 22 -4
4 -4 -1 -1 -10 4 -10 5 -18 3 -18 -12 0 -104 45 -120 59 -11 9 -16 11 -13 4 4
-6 3 -14 -3 -18 -5 -3 -10 -2 -10 3 0 6 -9 8 -20 5 -11 -3 -20 0 -20 6 0 6 -5
11 -11 11 -5 0 -7 -4 -4 -10 9 -14 -28 -12 -44 3 -9 7 -11 7 -8 1z m107 -77
c0 -5 5 -5 10 -2 6 3 10 0 10 -7 0 -9 3 -9 10 2 8 12 10 12 10 1 0 -8 3 -12 6
-8 6 6 84 -29 94 -43 3 -3 13 -9 23 -13 9 -3 17 -14 17 -22 0 -9 4 -14 9 -10
5 3 12 1 16 -5 3 -5 1 -10 -4 -10 -6 0 -11 -4 -11 -10 0 -5 6 -7 14 -4 20 7
48 -40 33 -55 -9 -9 -8 -11 4 -6 11 4 18 0 22 -14 3 -14 1 -19 -6 -15 -7 3 -5
0 4 -8 17 -14 32 -68 19 -68 -4 0 -11 -7 -14 -16 -6 -15 -4 -15 10 -3 15 12
16 8 10 -45 -8 -66 -32 -135 -52 -152 -8 -6 -11 -14 -7 -17 6 -6 -21 -11 -40
-8 -5 1 -6 -3 -2 -9 3 -6 11 -8 16 -5 16 11 10 -3 -15 -29 -13 -15 -28 -26
-34 -26 -5 0 -13 -7 -16 -16 -3 -8 -10 -12 -16 -9 -6 4 -7 11 -4 17 4 7 2 8
-4 4 -6 -4 -8 -14 -5 -23 4 -11 3 -14 -5 -9 -7 4 -12 2 -12 -6 0 -9 -3 -9 -10
2 -8 13 -10 13 -10 -1 0 -12 -14 -19 -47 -25 -66 -11 -68 -11 -65 4 1 8 -2 11
-8 7 -6 -3 -8 -11 -5 -16 7 -10 -19 -12 -52 -3 -14 4 -20 11 -16 18 4 6 -1 5
-10 -3 -12 -9 -17 -10 -17 -2 0 7 -5 9 -12 5 -6 -4 -17 1 -25 11 -10 14 -13
15 -14 4 0 -8 -4 -6 -9 6 -5 11 -9 14 -9 7 -1 -7 -6 -10 -11 -7 -6 4 -8 11 -5
16 4 5 -2 6 -11 2 -13 -5 -16 -3 -11 10 4 11 2 14 -8 11 -14 -6 -46 20 -76 60
-12 18 -12 19 1 12 8 -4 4 1 -9 12 -13 10 -21 24 -17 30 3 5 -1 13 -10 16 -8
3 -12 10 -9 16 4 6 11 7 17 4 7 -4 8 -2 4 5 -4 6 -11 9 -16 6 -5 -3 -11 -1
-15 5 -3 5 0 10 7 10 10 0 10 2 -1 9 -8 5 -14 27 -14 57 0 90 2 106 16 98 8
-5 8 -2 -2 9 -7 9 -9 17 -4 17 5 0 10 6 10 13 0 21 35 89 50 94 7 3 10 10 6
16 -4 6 0 8 11 4 9 -4 15 -3 12 1 -2 4 -2 13 2 18 12 18 106 78 98 63 -4 -8
-1 -6 7 4 15 18 33 24 22 8 -3 -5 0 -13 6 -17 7 -4 9 -3 6 3 -9 15 19 37 38
30 8 -4 17 -2 21 4 7 12 104 8 104 -4z"/>
<path d="M645 980 c-3 -6 1 -7 9 -4 18 7 21 14 7 14 -6 0 -13 -4 -16 -10z"/>
<path d="M350 811 c0 -6 4 -13 10 -16 6 -3 7 1 4 9 -7 18 -14 21 -14 7z"/>
<path d="M310 629 c0 -5 5 -7 10 -4 6 3 10 8 10 11 0 2 -4 4 -10 4 -5 0 -10
-5 -10 -11z"/>
<path d="M936 493 c-6 -14 -5 -15 5 -6 7 7 10 15 7 18 -3 3 -9 -2 -12 -12z"/>
<path d="M860 400 c-9 -6 -10 -10 -3 -10 6 0 15 5 18 10 8 12 4 12 -15 0z"/>
<path d="M616 318 c3 -5 10 -6 15 -3 13 9 11 12 -6 12 -8 0 -12 -4 -9 -9z"/>
<path d="M353 975 c0 -8 4 -12 9 -9 5 3 6 10 3 15 -9 13 -12 11 -12 -6z"/>
<path d="M270 959 c0 -5 5 -7 10 -4 6 3 10 8 10 11 0 2 -4 4 -10 4 -5 0 -10
-5 -10 -11z"/>
<path d="M1015 949 c-4 -6 -5 -12 -2 -15 2 -3 7 2 10 11 7 17 1 20 -8 4z"/>
<path d="M255 929 c-4 -6 -5 -12 -2 -15 2 -3 7 2 10 11 7 17 1 20 -8 4z"/>
<path d="M330 919 c0 -5 5 -7 10 -4 6 3 10 8 10 11 0 2 -4 4 -10 4 -5 0 -10
-5 -10 -11z"/>
<path d="M1096 802 c-3 -5 1 -9 9 -9 8 0 12 4 9 9 -3 4 -7 8 -9 8 -2 0 -6 -4
-9 -8z"/>
<path d="M170 679 c0 -5 5 -7 10 -4 6 3 10 8 10 11 0 2 -4 4 -10 4 -5 0 -10
-5 -10 -11z"/>
<path d="M1115 581 c-3 -5 -2 -12 3 -15 5 -3 9 1 9 9 0 17 -3 19 -12 6z"/>
<path d="M1096 518 c3 -5 10 -6 15 -3 13 9 11 12 -6 12 -8 0 -12 -4 -9 -9z"/>
<path d="M270 437 c0 -2 6 -10 14 -16 11 -9 16 -9 22 1 4 7 4 10 -1 6 -4 -4
-14 -3 -22 3 -7 6 -13 9 -13 6z"/>
<path d="M371 333 c7 -12 15 -20 18 -17 3 2 -3 12 -13 22 -17 16 -18 16 -5 -5z"/>
<path d="M336 293 c-6 -14 -5 -15 5 -6 7 7 10 15 7 18 -3 3 -9 -2 -12 -12z"/>
<path d="M446 218 c3 -5 10 -6 15 -3 13 9 11 12 -6 12 -8 0 -12 -4 -9 -9z"/>
<path d="M775 201 c-3 -5 -2 -12 3 -15 5 -3 9 1 9 9 0 17 -3 19 -12 6z"/>
<path d="M546 182 c-3 -5 1 -9 9 -9 8 0 12 4 9 9 -3 4 -7 8 -9 8 -2 0 -6 -4
-9 -8z"/>
<path d="M1069 283 c-13 -16 -12 -17 4 -4 16 13 21 21 13 21 -2 0 -10 -8 -17
-17z"/>
<path d="M1039 233 c-13 -16 -12 -17 4 -4 16 13 21 21 13 21 -2 0 -10 -8 -17
-17z"/>
</g>
</svg>
