<svg width="234" height="231" viewBox="0 0 234 231" fill="none" xmlns="http://www.w3.org/2000/svg">
<path d="M25.1588 142.672L25.8767 142.925L25.8236 142.166L25.178 132.939L25.1535 132.589L24.8158 132.493L22.8906 131.946L22.2776 123.184L24.1002 122.431L24.4333 122.293L24.4081 121.934L23.7561 112.615L23.7044 111.876L23.0383 112.2L1.41123 122.739L1.10793 122.887L1.13148 123.224L1.89713 134.167L1.92006 134.495L2.22994 134.604L25.1588 142.672ZM15.9821 125.903L16.2677 129.985L10.2835 128.295L15.9821 125.903Z" stroke="#35FAFD"/>
<path d="M10.9723 165.358L10.553 165.63L10.8254 166.05L15.5297 173.291L15.8021 173.71L16.2214 173.437L23.3783 168.788L28.2075 176.221L21.0506 180.871L20.6313 181.143L20.9037 181.562L25.6081 188.803L25.8805 189.223L26.2998 188.95L45.0082 176.796L45.4275 176.524L45.1551 176.105L40.4507 168.863L40.1783 168.444L39.759 168.717L33.7103 172.646L28.8811 165.213L34.9298 161.283L35.3491 161.011L35.0767 160.592L30.3724 153.351L30.1 152.931L29.6807 153.204L10.9723 165.358Z" stroke="#35FAFD"/>
<path d="M186.354 207.326L186.768 207.045L186.487 206.631L173.961 188.17L173.681 187.756L173.267 188.037L159.23 197.56C156.61 199.338 154.908 201.315 154.203 203.371C153.49 205.45 153.817 207.55 155.131 209.487C156.449 211.429 158.228 212.512 160.376 212.613C162.497 212.712 164.903 211.853 167.506 210.087L174.136 205.589L178.514 212.041L178.795 212.455L179.208 212.174L186.354 207.326ZM165.204 200.509L168.96 197.96L170.901 200.82L167.144 203.369C166.15 204.043 165.472 204.364 164.964 204.397C164.73 204.412 164.532 204.366 164.344 204.253C164.146 204.136 163.934 203.932 163.705 203.595C163.482 203.265 163.374 202.998 163.34 202.776C163.307 202.563 163.337 202.365 163.439 202.154C163.66 201.694 164.21 201.183 165.204 200.509Z" stroke="#35FAFD"/>
<path d="M201.28 155.557L201.177 156.047L201.667 156.149L223.504 160.717L223.993 160.82L224.096 160.33L226.097 150.765L226.15 150.512L225.973 150.322L216.33 139.972L227.361 142.279L227.85 142.382L227.953 141.892L229.664 133.711L229.767 133.221L229.277 133.119L207.44 128.551L206.951 128.449L206.848 128.938L204.866 138.413L204.813 138.666L204.99 138.856L214.991 149.595L203.539 147.2L203.05 147.097L202.947 147.587L201.28 155.557Z" stroke="#35FAFD"/>
<path d="M27.3008 42.2867L26.9276 42.6195L27.2604 42.9926L42.1094 59.6417L42.4422 60.0148L42.8153 59.682L50.1081 53.178L50.3014 53.0055L50.272 52.7481L48.6667 38.6941L56.1674 47.104L56.5002 47.4772L56.8733 47.1444L63.1111 41.5812L63.4843 41.2484L63.1515 40.8752L48.3025 24.2261L47.9697 23.853L47.5966 24.1858L40.3727 30.6285L40.1793 30.8009L40.2087 31.0583L41.8713 45.6384L34.084 36.907L33.7512 36.5338L33.378 36.8666L27.3008 42.2867Z" stroke="#35FAFD"/>
<path d="M226.304 85.3586L226.194 84.8709L225.706 84.9811L219.409 86.4043L224.625 78.6441L224.746 78.4651L224.698 78.2549L222.225 67.3147L221.94 66.0509L221.302 67.1789L215.599 77.273L199.905 71.0235L199.023 70.6722L199.233 71.5982L201.509 81.6692L201.573 81.9515L201.849 82.0368L211.676 85.0687L209.579 88.6264L203.945 89.8999L203.457 90.0101L203.568 90.4978L205.478 98.9503L205.589 99.438L206.076 99.3277L211.71 98.0542L215.133 100.364L207.566 107.328L207.353 107.524L207.417 107.806L209.694 117.877L209.903 118.803L210.548 118.106L222.028 105.715L231.518 112.374L232.579 113.119L232.293 111.855L229.82 100.915L229.773 100.704L229.587 100.595L221.541 95.8322L227.837 94.4089L228.325 94.2987L228.215 93.811L226.304 85.3586Z" stroke="#35FAFD"/>
<path d="M190.888 64.3241L191.219 64.6987L191.594 64.3675L208.309 49.5912L208.683 49.26L208.352 48.8854L197.117 36.1768C195.02 33.8048 192.843 32.3693 190.713 31.9319C188.56 31.4895 186.519 32.0815 184.766 33.6315C183.476 34.7718 182.672 36.1024 182.413 37.5956C182.188 38.8955 182.382 40.2779 182.971 41.7141L173.026 42.9374L172.083 43.0533L172.712 43.7648L179.551 51.5004L179.743 51.7173L180.026 51.659L189.114 49.7905L191.054 51.9848L185.212 57.1489L184.838 57.4801L185.169 57.8547L190.888 64.3241ZM194.954 42.4777L197.961 45.8788L195.372 48.1677L192.365 44.7666C191.569 43.867 191.164 43.2356 191.067 42.7353C191.022 42.5056 191.043 42.3036 191.13 42.1019C191.221 41.8912 191.397 41.6548 191.702 41.385C192.001 41.1209 192.252 40.98 192.468 40.9178C192.675 40.8583 192.875 40.8631 193.098 40.9369C193.581 41.0974 194.159 41.5784 194.954 42.4777Z" stroke="#35FAFD"/>
<path d="M151.189 6.6946L150.738 6.47857L150.522 6.92947L140.881 27.0485L140.665 27.4994L141.116 27.7154L158.326 35.9608C160.879 37.1844 163.109 37.6479 164.973 37.255C166.868 36.8558 168.291 35.5934 169.252 33.5878C169.89 32.2555 170.126 30.955 169.918 29.7202C169.761 28.7874 169.356 27.9202 168.722 27.1273C170.595 26.7774 172.038 25.6401 172.909 23.8228C173.885 21.7859 173.905 20.0431 172.883 18.4766C171.901 16.9708 170.001 15.7079 167.373 14.4488L151.189 6.6946ZM156.737 16.2545L161.524 18.548C161.983 18.7678 162.363 18.9544 162.672 19.1328C162.983 19.3127 163.19 19.4667 163.319 19.6097C163.44 19.7423 163.485 19.855 163.493 19.9732C163.503 20.1051 163.47 20.3001 163.328 20.5956C163.194 20.8757 163.066 21.0219 162.956 21.0995C162.856 21.1705 162.735 21.2094 162.553 21.2038C162.36 21.1978 162.108 21.1408 161.772 21.0183C161.438 20.8967 161.05 20.7217 160.589 20.5005L155.802 18.2071L156.737 16.2545ZM152.19 25.7448L153.351 23.3211L158.415 25.7473C158.938 25.9978 159.366 26.218 159.707 26.4291C160.05 26.6417 160.279 26.8292 160.421 27.0046C160.556 27.1699 160.612 27.3214 160.619 27.486C160.626 27.6629 160.577 27.9003 160.419 28.2314C160.262 28.5594 160.108 28.7376 159.97 28.8349C159.84 28.9256 159.687 28.9719 159.471 28.9646C159.242 28.9568 158.951 28.8891 158.573 28.7502C158.198 28.6123 157.765 28.4157 157.254 28.171L152.19 25.7448Z" stroke="#35FAFD"/>
<path d="M120.769 11.0061L120.814 11.4563H121.267H131.131H131.656L131.631 10.9322C131.47 7.6053 130.045 4.96772 127.426 3.17984C124.83 1.4075 121.106 0.5 116.381 0.5C111.348 0.5 107.469 1.51548 104.84 3.58396C102.189 5.66951 100.885 8.76477 100.885 12.7387C100.885 16.7125 102.189 19.8078 104.84 21.8933C107.469 23.9618 111.348 24.9773 116.381 24.9773C120.874 24.9773 124.46 24.1548 127.051 22.5061C129.662 20.8451 131.222 18.3706 131.687 15.1769L131.771 14.6048H131.193H121.236H120.832L120.747 14.9996C120.507 16.1173 120.01 16.9079 119.307 17.4257C118.599 17.9479 117.63 18.2309 116.381 18.2309C114.614 18.2309 113.333 17.7364 112.49 16.8531C111.644 15.9659 111.165 14.61 111.165 12.7387C111.165 10.8673 111.644 9.50278 112.492 8.60751C113.335 7.71667 114.616 7.21568 116.381 7.21568C117.742 7.21568 118.766 7.56258 119.476 8.17703C120.183 8.78872 120.641 9.7181 120.769 11.0061Z" stroke="#35FAFD"/>
<path d="M196.266 184.381L195.879 184.146L195.607 184.507L189.666 192.382L189.35 192.801L189.784 193.097C192.537 194.972 195.501 195.423 198.505 194.409C201.484 193.403 204.451 190.977 207.296 187.205C210.327 183.187 211.852 179.478 211.784 176.134C211.715 172.762 210.03 169.857 206.857 167.463C203.685 165.07 200.428 164.248 197.167 165.108C193.932 165.961 190.786 168.446 187.755 172.464C185.049 176.051 183.546 179.41 183.302 182.471C183.056 185.556 184.092 188.291 186.361 190.586L186.768 190.997L187.116 190.536L193.112 182.587L193.355 182.265L193.091 181.959C192.343 181.094 192.012 180.221 192.021 179.348C192.031 178.468 192.389 177.524 193.141 176.527C194.205 175.117 195.371 174.392 196.584 174.251C197.802 174.109 199.172 174.544 200.666 175.671C202.16 176.798 202.962 178.001 203.166 179.217C203.369 180.428 202.997 181.752 201.935 183.161C201.115 184.247 200.221 184.856 199.303 185.053C198.389 185.249 197.372 185.054 196.266 184.381Z" stroke="#35FAFD"/>
<path d="M86.0263 217.133L86.0772 216.683L85.6348 216.588L75.9922 214.508L75.4792 214.398L75.3935 214.916C74.8493 218.202 75.6863 221.08 77.8696 223.38C80.0339 225.66 83.4831 227.332 88.1016 228.328C93.0216 229.389 97.0274 229.214 100.033 227.746C103.064 226.266 104.992 223.515 105.829 219.63C106.667 215.746 106.044 212.445 103.893 209.848C101.759 207.272 98.1812 205.461 93.2612 204.4C88.8694 203.453 85.1903 203.502 82.3096 204.567C79.4073 205.64 77.3609 207.73 76.2327 210.754L76.0306 211.296L76.5958 211.418L86.3285 213.516L86.7233 213.602L86.8896 213.234C87.3603 212.192 88.0131 211.524 88.809 211.166C89.6116 210.804 90.6186 210.732 91.8391 210.995C93.5662 211.368 94.7139 212.121 95.3518 213.162C95.9925 214.208 96.1744 215.634 95.78 217.464C95.3855 219.293 94.6301 220.526 93.6124 221.222C92.5998 221.915 91.2423 222.135 89.5172 221.763C88.1863 221.476 87.2588 220.921 86.694 220.171C86.1317 219.424 85.8807 218.419 86.0263 217.133Z" stroke="#35FAFD"/>
<path d="M22.4187 100.208L22.8801 100.401L23.0728 99.9392L26.1638 92.5383L26.3565 92.0769L25.8951 91.8842L12.9629 86.4823L27.6636 88.0224L28.0337 88.0612L28.177 87.7179L30.7825 81.4796L30.9254 81.1374L30.6394 80.9013L19.1981 71.4545L32.1654 76.871L32.6267 77.0638L32.8194 76.6024L35.9104 69.2015L36.1031 68.7401L35.6417 68.5474L15.0557 59.9484L14.5943 59.7557L14.4016 60.2171L9.53423 71.8713L9.39098 72.2143L9.67813 72.4503L19.3021 80.3604L7.02579 78.8269L6.64887 78.7799L6.50247 79.1304L1.56402 90.9547L1.37133 91.4161L1.8327 91.6088L22.4187 100.208Z" stroke="#35FAFD"/>
</svg>
