<svg width="233" height="231" viewBox="0 0 233 231" fill="none" xmlns="http://www.w3.org/2000/svg">
<path d="M9.92052 99.4872L10.3729 99.4776L10.4082 99.0265L11.0523 90.8048L11.0933 90.2816L10.5688 90.2658C7.76115 90.1811 5.44435 91.206 3.76594 93.2931C2.10479 95.3587 1.10231 98.4217 0.793142 102.368C0.463813 106.572 1.05684 109.893 2.6238 112.241C4.20608 114.613 6.72663 115.912 10.0582 116.174C13.3898 116.436 16.0819 115.546 18.014 113.451C19.9275 111.376 21.0304 108.189 21.3597 103.985C21.6537 100.231 21.2023 97.171 19.9872 94.8842C18.7613 92.5772 16.78 91.1006 14.1264 90.4985L13.5625 90.3706L13.5174 90.947L12.8673 99.2455L12.8358 99.6481L13.2227 99.7637C14.1233 100.033 14.7316 100.488 15.1049 101.088C15.482 101.694 15.6534 102.501 15.5728 103.53C15.4586 104.987 14.9693 105.998 14.2002 106.625C13.427 107.255 12.2891 107.563 10.7423 107.442C9.19545 107.32 8.11208 106.837 7.43975 106.092C6.77151 105.352 6.44038 104.277 6.5544 102.821C6.64223 101.7 6.99301 100.89 7.53372 100.356C8.07146 99.8249 8.8541 99.5098 9.92052 99.4872Z" stroke="#35FAFD"/>
<path d="M110.36 219.193L110.874 219.282L110.942 218.765C111.104 217.521 111.006 216.396 110.622 215.388C110.237 214.378 109.575 213.516 108.655 212.782C106.833 211.328 103.98 210.362 100.151 209.693C96.3925 209.037 93.4254 209.015 91.2831 209.721C90.203 210.078 89.3209 210.623 88.6595 211.374C87.9974 212.126 87.5796 213.059 87.3884 214.154C87.1719 215.394 87.3178 216.501 87.8846 217.431C88.2125 217.969 88.6682 218.427 89.2387 218.81C88.7505 218.966 88.3152 219.196 87.9402 219.504C87.1968 220.114 86.743 220.989 86.5548 222.067C86.3851 223.04 86.4801 223.94 86.8682 224.758C87.2541 225.572 87.911 226.266 88.8008 226.861C90.5648 228.042 93.3294 228.895 97.0507 229.544C100.486 230.144 103.2 230.234 105.195 229.667C106.202 229.381 107.04 228.924 107.691 228.269C108.344 227.614 108.785 226.785 109.036 225.794L109.168 225.272L108.637 225.179L100.892 223.827L100.511 223.761L100.35 224.113C100.303 224.218 100.178 224.353 99.7557 224.413C99.3298 224.474 98.7089 224.437 97.8636 224.29C96.782 224.101 96.0507 223.856 95.6206 223.584C95.4098 223.451 95.2972 223.328 95.241 223.227C95.19 223.136 95.1724 223.042 95.1931 222.923C95.2224 222.755 95.2778 222.682 95.33 222.639C95.3919 222.588 95.5093 222.531 95.7392 222.504C96.2193 222.446 96.9538 222.538 98.0322 222.726L101.07 223.256L101.562 223.342L101.648 222.85L102.386 218.623L102.472 218.131L101.979 218.045L98.6383 217.462C97.4697 217.258 96.7276 217.046 96.3049 216.777C96.1065 216.651 96.0069 216.53 95.9561 216.415C95.9055 216.301 95.881 216.143 95.9227 215.904C95.9549 215.72 96.0254 215.595 96.1239 215.502C96.2277 215.403 96.3936 215.311 96.6592 215.248C97.2057 215.118 98.0544 215.141 99.2673 215.353C100.416 215.553 101.229 215.837 101.762 216.197C102.273 216.542 102.525 216.954 102.584 217.471L102.626 217.843L102.994 217.907L110.36 219.193Z" stroke="#35FAFD"/>
<path d="M199.128 164.176L198.736 163.865L198.425 164.256L193.93 169.905L193.619 170.297L194.01 170.608L198.746 174.375L194.867 179.251C193.165 181.39 192.258 183.457 192.2 185.342C192.141 187.253 192.958 188.91 194.557 190.182C196.147 191.447 197.941 191.866 199.787 191.377C201.608 190.894 203.418 189.546 205.119 187.407L213.805 176.49L214.117 176.099L213.725 175.788L199.128 164.176ZM202.928 182.118C202.257 182.962 201.761 183.41 201.343 183.571C201.152 183.644 200.979 183.657 200.799 183.615C200.61 183.572 200.385 183.462 200.11 183.244C199.831 183.021 199.669 182.823 199.581 182.645C199.497 182.476 199.469 182.302 199.497 182.1C199.558 181.656 199.882 181.073 200.554 180.23L202.706 177.525L205.08 179.414L202.928 182.118Z" stroke="#35FAFD"/>
<path d="M211.647 131.548L211.17 131.398L211.02 131.875L208.855 138.762L208.705 139.239L209.182 139.389L222.063 143.438L219.89 150.351L207.008 146.302L206.531 146.152L206.381 146.629L204.216 153.516L204.066 153.993L204.543 154.143L222.338 159.737L222.815 159.887L222.965 159.41L229.769 137.769L229.919 137.292L229.442 137.142L211.647 131.548Z" stroke="#35FAFD"/>
<path d="M220.5 92.7881C217.166 93.0111 214.618 94.2817 212.996 96.634C211.389 98.9646 210.745 102.279 211.027 106.488C211.308 110.697 212.388 113.897 214.292 115.992C216.213 118.108 218.906 119.028 222.24 118.805C225.575 118.581 228.11 117.311 229.719 114.959C231.313 112.629 231.944 109.315 231.662 105.108C231.381 100.9 230.314 97.7003 228.424 95.6034C226.516 93.486 223.834 92.565 220.5 92.7881ZM221.084 101.527C222.633 101.424 223.774 101.745 224.547 102.385C225.315 103.02 225.798 104.037 225.896 105.494C225.993 106.95 225.65 108.022 224.973 108.754C224.293 109.491 223.204 109.962 221.656 110.065C220.108 110.169 218.973 109.847 218.207 109.208C217.445 108.573 216.967 107.556 216.87 106.097C216.772 104.639 217.11 103.567 217.781 102.836C218.455 102.101 219.536 101.631 221.084 101.527Z" stroke="#35FAFD"/>
<path d="M89.9347 13.4194C88.7084 10.3111 86.7234 8.27107 83.9891 7.44124C81.28 6.61909 77.9261 7.01333 74.0017 8.56131C70.0773 10.1093 67.3574 12.1108 65.9394 14.5609C64.5081 17.0338 64.4506 19.8795 65.6769 22.9878C66.9032 26.0962 68.8841 28.125 71.6149 28.9425C74.3192 29.7521 77.668 29.3455 81.591 27.798C85.5141 26.2506 88.2386 24.2617 89.6618 21.824C91.0989 19.3625 91.161 16.5278 89.9347 13.4194ZM81.7863 16.6335C82.3556 18.0766 82.3968 19.2619 82.0223 20.1926C81.65 21.1177 80.8285 21.8869 79.4703 22.4226C78.1121 22.9584 76.9866 22.9572 76.083 22.5353C75.1739 22.1109 74.3947 21.2168 73.8253 19.7737C73.2559 18.3305 73.2174 17.1521 73.5933 16.2282C73.9671 15.3092 74.7906 14.5449 76.1507 14.0084C77.5108 13.4719 78.6343 13.4682 79.535 13.8845C80.4405 14.303 81.2169 15.1903 81.7863 16.6335Z" stroke="#35FAFD"/>
<path d="M23.7046 169.401C21.0822 171.472 19.7016 173.961 19.6961 176.818C19.6907 179.649 21.0362 182.746 23.651 186.057C26.2658 189.367 28.9673 191.393 31.7226 192.044C34.5036 192.7 37.2451 191.934 39.8675 189.863C42.49 187.792 43.861 185.31 43.8557 182.46C43.8505 179.637 42.4946 176.549 39.8807 173.239C37.2668 169.93 34.576 167.896 31.8311 167.237C29.0593 166.571 26.3271 167.33 23.7046 169.401ZM29.1338 176.275C30.3514 175.313 31.4745 174.932 32.4738 175.021C33.467 175.111 34.4406 175.675 35.3456 176.821C36.2506 177.967 36.5742 179.045 36.4311 180.031C36.2871 181.024 35.6558 182.028 34.4382 182.99C33.2206 183.951 32.1034 184.328 31.1102 184.235C30.1223 184.142 29.1528 183.575 28.2466 182.427C27.3404 181.28 27.0126 180.206 27.1513 179.223C27.2907 178.236 27.9163 177.236 29.1338 176.275Z" stroke="#35FAFD"/>
<path d="M182.81 198.376C181.047 195.537 178.729 193.885 175.891 193.558C173.078 193.233 169.849 194.221 166.265 196.446C162.681 198.672 160.363 201.127 159.406 203.792C158.441 206.481 158.893 209.291 160.656 212.129C162.419 214.968 164.731 216.61 167.564 216.926C170.369 217.238 173.591 216.239 177.174 214.015C180.757 211.791 183.081 209.346 184.046 206.693C185.019 204.015 184.573 201.215 182.81 198.376ZM175.368 202.996C176.187 204.314 176.439 205.472 176.237 206.455C176.037 207.432 175.366 208.336 174.126 209.106C172.885 209.876 171.778 210.076 170.813 209.823C169.843 209.568 168.916 208.827 168.098 207.509C167.279 206.191 167.031 205.039 167.235 204.063C167.438 203.092 168.112 202.192 169.354 201.421C170.596 200.65 171.701 200.445 172.661 200.694C173.627 200.944 174.55 201.678 175.368 202.996Z" stroke="#35FAFD"/>
<path d="M197.618 64.5053L197.17 64.7275L197.393 65.1754L206.448 83.426L206.67 83.8739L207.118 83.6518L211.422 81.5167L211.87 81.2945L211.648 80.8466L206.023 69.511L207.337 68.8593L211.625 77.5021L211.848 77.95L212.296 77.7279L216.393 75.6955L216.841 75.4733L216.618 75.0254L212.33 66.3825L213.437 65.8336L218.787 76.6168L219.009 77.0647L219.457 76.8426L223.554 74.8102L224.002 74.588L223.78 74.1401L214.999 56.4419L214.776 55.994L214.329 56.2162L197.618 64.5053Z" stroke="#35FAFD"/>
<path d="M202.917 38.962L203.251 38.59L202.878 38.256L187.927 24.8349L187.555 24.5009L187.221 24.8729L182.381 30.2641C181.388 31.3692 180.166 32.5291 178.996 33.2139C177.795 33.9165 176.873 34.0044 176.237 33.4332L175.319 32.6094L174.947 32.2754L174.613 32.6475L169.206 38.6695L168.872 39.0416L169.244 39.3756L174.368 43.9751L174.74 44.3091L175.074 43.9371L177.177 41.5944L185.783 49.3189L183.679 51.6615L183.345 52.0336L183.717 52.3676L188.841 56.9671L189.214 57.3011L189.548 56.9291L194.954 50.907L195.288 50.535L194.916 50.201L193.759 49.162L202.917 38.962ZM187.642 43.6713L183.408 39.8708C185.214 38.9471 186.779 37.6688 188.549 35.6974L189.897 34.1959L193.359 37.3037L187.642 43.6713Z" stroke="#35FAFD"/>
<path d="M3.76115 133.195L3.27282 133.303L3.38023 133.791L7.69606 153.413L7.80347 153.901L8.2918 153.794L15.3683 152.237C16.8189 151.918 18.4883 151.689 19.8384 151.815C21.2234 151.945 22.024 152.412 22.2077 153.247L22.4726 154.451L22.58 154.939L23.0683 154.832L30.9729 153.094L31.4613 152.986L31.3538 152.498L29.8748 145.773L29.7674 145.285L29.279 145.392L26.204 146.069L23.7201 134.776L26.7951 134.099L27.2834 133.992L27.176 133.504L25.6969 126.779L25.5895 126.291L25.1012 126.398L17.1966 128.136L16.7082 128.244L16.8157 128.732L17.1498 130.251L3.76115 133.195ZM18.9154 138.279L20.1375 143.835C18.1322 143.532 16.115 143.658 13.5274 144.227L11.5565 144.66L10.5571 140.117L18.9154 138.279Z" stroke="#35FAFD"/>
<path d="M162.309 31.3997L162.775 31.5818L162.957 31.1162L169.752 13.7458L169.934 13.2802L169.468 13.098L161.859 10.1222L161.618 10.0278L161.401 10.1705L151.745 16.5431L155.084 8.00926L155.266 7.54362L154.8 7.36151L148.292 4.81609L147.826 4.63398L147.644 5.09963L140.849 22.47L140.667 22.9357L141.133 23.1178L148.67 26.0656L148.911 26.1599L149.128 26.0173L159.154 19.4028L155.685 28.2721L155.503 28.7377L155.968 28.9198L162.309 31.3997Z" stroke="#35FAFD"/>
<path d="M122.993 210.996L122.502 211.093L122.6 211.584L126.226 229.88L126.323 230.37L126.814 230.273L134.828 228.684L135.083 228.634L135.188 228.397L139.894 217.829L141.676 226.818L141.773 227.308L142.263 227.211L149.119 225.853L149.609 225.755L149.512 225.265L145.885 206.969L145.788 206.479L145.298 206.576L137.359 208.149L137.105 208.199L136.999 208.436L132.111 219.408L130.259 210.066L130.162 209.575L129.672 209.672L122.993 210.996Z" stroke="#35FAFD"/>
<path d="M107.057 0.5H106.557V1V19.6518V20.1518H107.057H123.012C125.388 20.1518 127.258 19.6947 128.542 18.7093C129.851 17.705 130.475 16.2125 130.475 14.3337C130.475 13.0856 130.18 12.0025 129.565 11.1299C129.125 10.5047 128.536 10.0085 127.815 9.63976C129.053 8.68628 129.705 7.31376 129.705 5.6501C129.705 3.74164 129.081 2.38937 127.714 1.55859C126.408 0.765471 124.5 0.5 122.062 0.5H107.057ZM114.777 5.8675H119.133C119.558 5.8675 119.909 5.87091 120.203 5.8937C120.499 5.91671 120.701 5.95734 120.839 6.01355C120.964 6.06446 121.023 6.12203 121.061 6.1894C121.106 6.26856 121.151 6.41182 121.151 6.67775C121.151 6.92922 121.108 7.07026 121.063 7.15207C121.023 7.22384 120.96 7.28582 120.835 7.34117C120.698 7.40159 120.498 7.44841 120.204 7.47711C119.913 7.50553 119.56 7.51369 119.133 7.51369H114.777V5.8675ZM114.777 14.5017V12.4187H119.39C119.874 12.4187 120.272 12.4301 120.601 12.4656C120.933 12.5015 121.162 12.5591 121.322 12.6342C121.469 12.7038 121.552 12.786 121.607 12.89C121.668 13.0048 121.716 13.1868 121.716 13.4859C121.716 13.7817 121.666 13.9561 121.606 14.063C121.551 14.1601 121.468 14.2392 121.315 14.3061C121.151 14.378 120.918 14.4306 120.586 14.4622C120.257 14.4935 119.863 14.5017 119.39 14.5017H114.777Z" stroke="#35FAFD"/>
<path d="M28.9268 40.182L28.5636 40.5257L28.9073 40.8888L41.7294 54.4356L42.0731 54.7988L42.4363 54.4551L54.025 43.4885C55.7507 41.8555 56.7942 40.2386 57.0497 38.6401C57.31 37.0109 56.7373 35.498 55.4458 34.1335C54.5877 33.2269 53.6285 32.6435 52.5822 32.4321C51.8327 32.2807 51.0637 32.3252 50.2869 32.5526C50.5304 31.0094 50.0601 29.5647 48.9164 28.3563C47.6045 26.9702 46.2221 26.4165 44.6579 26.753C43.1645 27.0741 41.596 28.193 39.825 29.8689L28.9268 40.182ZM38.2236 38.7744L41.3874 35.7804C41.6966 35.4879 41.9538 35.2491 42.1827 35.0639C42.4139 34.8768 42.5882 34.7678 42.727 34.7139C42.8527 34.665 42.9352 34.6662 43.0094 34.6887C43.0966 34.7152 43.2273 34.7888 43.4101 34.982C43.583 35.1646 43.6493 35.2961 43.6724 35.3869C43.6926 35.4666 43.69 35.5544 43.637 35.6807C43.5793 35.8186 43.4658 35.9903 43.2719 36.2133C43.08 36.4341 42.8297 36.6822 42.5191 36.9761L39.3553 39.9701L38.2236 38.7744ZM44.1592 45.0454L42.7272 43.5326L46.0777 40.362C46.4292 40.0294 46.7267 39.7635 46.9899 39.5633C47.2554 39.3614 47.4617 39.2455 47.6289 39.1907C47.7838 39.1399 47.9006 39.1425 48.0123 39.1801C48.1354 39.2217 48.2953 39.321 48.5009 39.5382C48.7042 39.753 48.7878 39.9141 48.8177 40.0331C48.8448 40.1411 48.8384 40.2561 48.7736 40.4095C48.7039 40.5744 48.5705 40.773 48.3514 41.0239C48.134 41.2727 47.8534 41.5496 47.5096 41.8749L44.1592 45.0454Z" stroke="#35FAFD"/>
<path d="M75.0591 202.394L75.4774 202.668L75.2035 203.086L64.9848 218.69L64.7109 219.109L64.2926 218.835L50.944 210.095C48.9562 208.793 47.6426 207.387 47.108 205.859C46.5631 204.302 46.8586 202.711 47.8879 201.139C48.5717 200.095 49.4124 199.351 50.4046 198.958C51.1154 198.676 51.8802 198.583 52.685 198.67C52.1719 197.194 52.3787 195.689 53.2902 194.297C54.3358 192.7 55.5981 191.91 57.1973 191.964C58.7239 192.016 60.4659 192.839 62.5058 194.175L75.0591 202.394ZM65.6599 202.656L62.0156 200.27C61.6595 200.037 61.364 199.847 61.106 199.705C60.8452 199.562 60.6544 199.486 60.5082 199.457C60.3759 199.431 60.2949 199.447 60.2258 199.483C60.1447 199.524 60.0292 199.62 59.8835 199.842C59.7457 200.053 59.7037 200.194 59.6971 200.287C59.6913 200.369 59.7094 200.455 59.7839 200.57C59.8652 200.696 60.0073 200.844 60.2376 201.03C60.4657 201.213 60.7559 201.413 61.1137 201.647L64.758 204.033L65.6599 202.656ZM60.9295 209.879L62.0707 208.137L58.2115 205.61C57.8066 205.345 57.4667 205.136 57.1721 204.985C56.8751 204.834 56.6515 204.756 56.4772 204.732C56.3158 204.709 56.2012 204.732 56.0981 204.789C55.9842 204.852 55.8445 204.978 55.6806 205.228C55.5186 205.476 55.4648 205.649 55.4565 205.771C55.449 205.883 55.4756 205.995 55.5666 206.134C55.6644 206.284 55.8309 206.456 56.0911 206.664C56.349 206.87 56.6743 207.093 57.0703 207.352L60.9295 209.879Z" stroke="#35FAFD"/>
<path d="M28.8507 76.4065L29.2947 76.6364L29.5246 76.1925L32.857 69.7593L33.087 69.3153L32.643 69.0853L20.7212 62.9112L23.599 57.3554L23.829 56.9114L23.385 56.6815L19.187 54.5074L18.7431 54.2775L18.5131 54.7214L8.97691 73.1314L8.74693 73.5754L9.19092 73.8053L13.3889 75.9794L13.8329 76.2093L14.0629 75.7653L16.9289 70.2323L28.8507 76.4065Z" stroke="#35FAFD"/>
</svg>
